# File created by Blade
# Date/Time:  Wed Sep 24 19:42:34 2014
# Frame Rate: 120.000 fps
#------------------------------------------------------
:FULLY-SPECIFIED
:DEGREES
3180
root -4.589286 33.073435 -3.742770 7.640501 -1.736038 -2.698627
Spine -12.814757 9.990560 -9.978641
Head 15.814780 -13.769307 10.844613
LeftShoulder -18.528615 24.970715 7.727791
LeftArm 22.801614 23.461407 -63.292456
LeftForeArm 4.272084 -0.000000 28.234813
LeftHand -25.767880 -0.000000 -4.825788
LeftHandThumb1 -26.253704 0.000000 33.147579
RightShoulder 338.652582 14.115990 311.491866
RightArm 26.839657 -9.040132 2.221307
RightForeArm -25.882065 -0.000000 64.938665
RightHand -5.986029 -0.000000 51.594162
RightHandThumb1 -24.326973 -0.000000 -32.862282
LeftUpLeg -1.979242 7.069638 5.977486
LeftLeg -1.613092 -0.000000 0.000000
LeftFoot -8.751027 6.195661 -19.469850
LeftToeBase 10.552255 -0.000000 -0.000000
RightUpLeg -5.338632 -5.936953 0.479269
RightLeg 2.245612 -0.000000 -0.000000
RightFoot -5.404244 -2.575583 -15.456616
RightToeBase 0.216786 -0.000000 -0.000000
3181
root -4.584333 33.072332 -3.743573 7.648984 -1.701259 -2.689226
Spine -12.777919 9.930120 -9.963676
Head 15.830073 -13.614400 10.867245
LeftShoulder -18.559619 25.013081 7.775434
LeftArm 22.739932 23.497506 -63.372452
LeftForeArm 4.189744 -0.000000 28.221616
LeftHand -25.807150 0.000000 -4.930230
LeftHandThumb1 -26.253704 0.000000 33.147579
RightShoulder 338.719477 14.558625 311.302008
RightArm 26.326841 -9.877165 2.693721
RightForeArm -26.182476 -0.000000 64.878035
RightHand -5.991583 -0.000000 51.779556
RightHandThumb1 -24.326973 -0.000000 -32.862282
LeftUpLeg -1.988024 7.075894 5.960229
LeftLeg -1.633980 -0.000000 0.000000
LeftFoot -8.732775 6.166335 -19.440299
LeftToeBase 10.553923 -0.000000 -0.000000
RightUpLeg -5.344061 -5.968154 0.465983
RightLeg 2.243159 -0.000000 -0.000000
RightFoot -5.420498 -2.586339 -15.453169
RightToeBase 0.270351 -0.000000 -0.000000
3182
root -4.578563 33.072052 -3.743346 7.651879 -1.670101 -2.671661
Spine -12.730531 9.880518 -9.946420
Head 15.853399 -13.451979 10.890504
LeftShoulder -18.573737 25.036064 7.829077
LeftArm 22.668865 23.574510 -63.450045
LeftForeArm 4.112868 -0.000000 28.170260
LeftHand -25.682549 -0.000000 -5.004507
LeftHandThumb1 -26.253704 0.000000 33.147579
RightShoulder 338.744431 15.568224 310.662840
RightArm 25.616879 -11.309297 3.531746
RightForeArm -26.665968 -0.000000 64.909117
RightHand -6.020452 -0.000000 51.901483
RightHandThumb1 -24.326973 -0.000000 -32.862282
LeftUpLeg -1.989975 7.059739 5.932351
LeftLeg -1.651945 -0.000000 0.000000
LeftFoot -8.724221 6.165294 -19.414845
LeftToeBase 10.593548 -0.000000 -0.000000
RightUpLeg -5.338524 -6.006591 0.444439
RightLeg 2.232461 -0.000000 -0.000000
RightFoot -5.427026 -2.597854 -15.475452
RightToeBase 0.262991 -0.000000 -0.000000
3183
root -4.572736 33.071767 -3.745340 7.665217 -1.653062 -2.653831
Spine -12.690178 9.836396 -9.932849
Head 15.874022 -13.298407 10.944971
LeftShoulder -18.615440 25.077442 7.879839
LeftArm 22.661293 23.685241 -63.494539
LeftForeArm 4.103320 -0.000000 28.089082
LeftHand -25.632928 -0.000000 -5.083420
LeftHandThumb1 -26.253704 0.000000 33.147579
RightShoulder 338.793483 15.843677 310.525585
RightArm 25.129243 -11.817176 3.982471
RightForeArm -27.138920 0.000000 64.950015
RightHand -6.074268 0.000000 52.115245
RightHandThumb1 -24.326973 -0.000000 -32.862282
LeftUpLeg -2.007867 7.027062 5.906394
LeftLeg -1.655729 -0.000000 0.000000
LeftFoot -8.721005 6.167265 -19.421394
LeftToeBase 10.566990 -0.000000 -0.000000
RightUpLeg -5.348703 -6.003743 0.417843
RightLeg 2.221886 -0.000000 -0.000000
RightFoot -5.417288 -2.602871 -15.447601
RightToeBase 0.219606 -0.000000 -0.000000
3184
root -4.566907 33.070535 -3.746286 7.668270 -1.632130 -2.640155
Spine -12.643614 9.780229 -9.910253
Head 15.896517 -13.141242 11.039366
LeftShoulder -18.664044 25.128428 7.932277
LeftArm 22.675308 23.794303 -63.542084
LeftForeArm 4.154904 -0.000000 28.010273
LeftHand -25.631310 -0.000000 -5.373012
LeftHandThumb1 -26.253704 0.000000 33.147579
RightShoulder 338.874470 15.576604 310.840155
RightArm 24.927022 -11.707497 3.899147
RightForeArm -27.423004 -0.000000 64.921529
RightHand -6.128823 -0.000000 52.300867
RightHandThumb1 -24.326973 -0.000000 -32.862282
LeftUpLeg -2.016945 7.043345 5.884717
LeftLeg -1.659616 -0.000000 0.000000
LeftFoot -8.704496 6.125126 -19.409127
LeftToeBase 10.548633 -0.000000 -0.000000
RightUpLeg -5.344035 -6.017439 0.399046
RightLeg 2.204840 -0.000000 -0.000000
RightFoot -5.423788 -2.634161 -15.489280
RightToeBase 0.254393 -0.000000 -0.000000
3185
root -4.561886 33.070810 -3.747310 7.672678 -1.616791 -2.632139
Spine -12.596806 9.751577 -9.869838
Head 15.907321 -13.006647 11.116013
LeftShoulder -18.681522 25.136343 7.972037
LeftArm 22.652110 23.953855 -63.558851
LeftForeArm 4.127510 -0.000000 27.935804
LeftHand -25.613039 0.000000 -5.447754
LeftHandThumb1 -26.253704 0.000000 33.147579
RightShoulder 338.867139 15.532298 310.921954
RightArm 24.713498 -11.833006 4.013650
RightForeArm -27.637851 0.000000 64.914220
RightHand -6.249459 -0.000000 52.345950
RightHandThumb1 -24.326973 -0.000000 -32.862282
LeftUpLeg -2.027061 7.037255 5.868388
LeftLeg -1.659424 -0.000000 0.000000
LeftFoot -8.704583 6.123147 -19.406905
LeftToeBase 10.598129 -0.000000 -0.000000
RightUpLeg -5.347870 -6.026465 0.385072
RightLeg 2.202508 -0.000000 -0.000000
RightFoot -5.411826 -2.638886 -15.475392
RightToeBase 0.233815 -0.000000 -0.000000
3186
root -4.555449 33.071023 -3.748016 7.680509 -1.598139 -2.613894
Spine -12.553001 9.725754 -9.840949
Head 15.915228 -12.893485 11.217194
LeftShoulder -18.693572 25.111795 8.024125
LeftArm 22.610212 24.153093 -63.558893
LeftForeArm 4.151217 -0.000000 27.857420
LeftHand -25.516050 -0.000000 -5.550793
LeftHandThumb1 -26.253704 0.000000 33.147579
RightShoulder 338.905294 15.732877 310.857275
RightArm 24.351804 -12.232199 4.147143
RightForeArm -27.890676 -0.000000 65.016090
RightHand -6.332971 -0.000000 52.517740
RightHandThumb1 -24.326973 -0.000000 -32.862282
LeftUpLeg -2.042593 7.006605 5.840809
LeftLeg -1.656509 -0.000000 0.000000
LeftFoot -8.699576 6.122688 -19.426391
LeftToeBase 10.573695 -0.000000 -0.000000
RightUpLeg -5.341354 -6.011822 0.356042
RightLeg 2.174398 -0.000000 -0.000000
RightFoot -5.406070 -2.675676 -15.483550
RightToeBase 0.326785 -0.000000 -0.000000
3187
root -4.548533 33.070764 -3.749113 7.687017 -1.571166 -2.587843
Spine -12.503552 9.698367 -9.813689
Head 15.911394 -12.811248 11.288461
LeftShoulder -18.726243 25.096021 8.063012
LeftArm 22.620491 24.387762 -63.508854
LeftForeArm 4.228353 -0.000000 27.778630
LeftHand -25.559717 -0.000000 -5.724278
LeftHandThumb1 -26.253704 0.000000 33.147579
RightShoulder 338.941744 15.724324 310.870185
RightArm 24.074730 -12.454453 4.168046
RightForeArm -28.064604 -0.000000 65.086985
RightHand -6.289687 -0.000000 52.640060
RightHandThumb1 -24.326973 -0.000000 -32.862282
LeftUpLeg -2.062799 6.981171 5.803422
LeftLeg -1.648445 -0.000000 0.000000
LeftFoot -8.699099 6.129721 -19.431368
LeftToeBase 10.541107 -0.000000 -0.000000
RightUpLeg -5.334012 -6.017223 0.323531
RightLeg 2.147996 -0.000000 -0.000000
RightFoot -5.391206 -2.711073 -15.500069
RightToeBase 0.264273 -0.000000 -0.000000
3188
root -4.542632 33.071246 -3.750385 7.697075 -1.548445 -2.564046
Spine -12.459568 9.697814 -9.792404
Head 15.898214 -12.794080 11.345716
LeftShoulder -18.738294 25.052928 8.097425
LeftArm 22.619439 24.608638 -63.450141
LeftForeArm 4.266016 -0.000000 27.718871
LeftHand -25.570127 -0.000000 -5.792200
LeftHandThumb1 -26.253704 0.000000 33.147579
RightShoulder 338.962603 15.754491 310.824544
RightArm 23.768388 -12.699293 4.232844
RightForeArm -28.176050 -0.000000 65.208738
RightHand -6.264024 0.000000 52.957565
RightHandThumb1 -24.326973 -0.000000 -32.862282
LeftUpLeg -2.089828 6.939348 5.772672
LeftLeg -1.629168 -0.000000 0.000000
LeftFoot -8.695554 6.137338 -19.432469
LeftToeBase 10.540995 -0.000000 -0.000000
RightUpLeg -5.339598 -6.013875 0.294238
RightLeg 2.135850 -0.000000 -0.000000
RightFoot -5.381120 -2.755398 -15.522678
RightToeBase 0.289247 -0.000000 -0.000000
